<svg width="1200" height="520" viewBox="0 0 1200 520" fill="none" xmlns="http://www.w3.org/2000/svg" role="img" aria-labelledby="title desc">
  <title id="title">Samuel Adebayo AI engineering technology stack</title>
  <desc id="desc">A clean light technology stack panel showing languages, machine learning, agentic AI, backend systems, data and cloud platforms, and delivery interfaces.</desc>

  <defs>
    <linearGradient id="bg" x1="0" y1="0" x2="1200" y2="520" gradientUnits="userSpaceOnUse">
      <stop offset="0" stop-color="#F8FBFF"/>
      <stop offset="0.52" stop-color="#EEF4FA"/>
      <stop offset="1" stop-color="#F6F8FC"/>
    </linearGradient>

    <radialGradient id="wash" cx="0" cy="0" r="1" gradientUnits="userSpaceOnUse" gradientTransform="translate(940 88) rotate(90) scale(230 380)">
      <stop offset="0" stop-color="#8AA0FF" stop-opacity="0.16"/>
      <stop offset="0.48" stop-color="#72D0BD" stop-opacity="0.07"/>
      <stop offset="1" stop-color="#F8FBFF" stop-opacity="0"/>
    </radialGradient>

    <linearGradient id="accent" x1="70" y1="124" x2="1130" y2="124" gradientUnits="userSpaceOnUse">
      <stop offset="0" stop-color="#72D0BD"/>
      <stop offset="0.34" stop-color="#8AD0FF"/>
      <stop offset="0.68" stop-color="#B7A6FF"/>
      <stop offset="1" stop-color="#D9BE73"/>
    </linearGradient>

    <linearGradient id="signal" x1="804" y1="72" x2="1096" y2="72" gradientUnits="userSpaceOnUse">
      <stop offset="0" stop-color="#72D0BD"/>
      <stop offset="0.5" stop-color="#9BA9FF"/>
      <stop offset="1" stop-color="#D9BE73"/>
    </linearGradient>

    <pattern id="grid" width="48" height="48" patternUnits="userSpaceOnUse">
      <path d="M48 0H0V48" stroke="#94A3B8" stroke-opacity="0.075" stroke-width="1"/>
    </pattern>

    <filter id="shadow" x="18" y="16" width="1164" height="488" filterUnits="userSpaceOnUse" color-interpolation-filters="sRGB">
      <feDropShadow dx="0" dy="18" stdDeviation="26" flood-color="#64748B" flood-opacity="0.16"/>
    </filter>

    <style>
      .display {
        font-family: Inter, "Segoe UI", Roboto, Helvetica, Arial, sans-serif;
      }

      .mono {
        font-family: ui-monospace, "SFMono-Regular", "Cascadia Code", "Segoe UI Mono", "Roboto Mono", "JetBrains Mono", "IBM Plex Mono", Consolas, "Liberation Mono", monospace;
      }

      .title {
        fill: #0F172A;
        font-size: 27px;
        font-weight: 740;
      }

      .subtitle {
        fill: #475569;
        font-size: 13.2px;
        font-weight: 520;
      }

      .flow-label {
        fill: #52637A;
        font-size: 9.5px;
        font-weight: 650;
      }

      .card-title {
        fill: #1E293B;
        font-size: 14px;
        font-weight: 720;
      }

      .card-subtitle {
        fill: #64748B;
        font-size: 9.5px;
        font-weight: 540;
      }

      .chip-text {
        fill: #1F2937;
        font-size: 10.5px;
        font-weight: 650;
      }

      .chip-mini {
        fill: #07111F;
        font-size: 6.6px;
        font-weight: 820;
      }

      @media (prefers-reduced-motion: reduce) {
        animate {
          display: none;
        }
      }
    </style>
  </defs>

  <rect width="1200" height="520" fill="url(#bg)"/>
  <rect width="1200" height="520" fill="url(#grid)"/>
  <rect width="1200" height="520" fill="url(#wash)"/>

  <g filter="url(#shadow)">
    <rect x="44" y="34" width="1112" height="452" rx="24" fill="#FFFFFF" fill-opacity="0.9" stroke="#94A3B8" stroke-opacity="0.22"/>
  </g>

  <g class="display">
    <text class="title" x="72" y="82">AI Engineering Stack</text>
    <text class="subtitle" x="73" y="110">Production ML &#183; agentic systems &#183; cloud platforms &#183; evaluation &#183; applied interfaces</text>
  </g>

  <g class="mono">
    <path d="M804 70H1096" stroke="#CBD5E1" stroke-width="1.4" stroke-linecap="round"/>
    <path d="M804 70H1096" stroke="url(#signal)" stroke-width="2.2" stroke-linecap="round" stroke-dasharray="34 258" stroke-dashoffset="292">
      <animate attributeName="stroke-dashoffset" from="292" to="0" dur="6.8s" repeatCount="indefinite"/>
    </path>
    <g>
      <circle cx="804" cy="70" r="4.7" fill="#FFFFFF" stroke="#72D0BD" stroke-width="1.4"/>
      <circle cx="898" cy="70" r="4.7" fill="#FFFFFF" stroke="#8AD0FF" stroke-width="1.4"/>
      <circle cx="992" cy="70" r="4.7" fill="#FFFFFF" stroke="#B7A6FF" stroke-width="1.4"/>
      <circle cx="1096" cy="70" r="4.7" fill="#FFFFFF" stroke="#D9BE73" stroke-width="1.4"/>
      <circle cx="804" cy="70" r="3.2" fill="#72D0BD">
        <animate attributeName="cx" values="804;898;992;1096;804" dur="6.8s" repeatCount="indefinite"/>
        <animate attributeName="fill" values="#72D0BD;#8AD0FF;#B7A6FF;#D9BE73;#72D0BD" dur="6.8s" repeatCount="indefinite"/>
      </circle>
    </g>
    <text class="flow-label" x="788" y="54">build</text>
    <text class="flow-label" x="878" y="54">agent</text>
    <text class="flow-label" x="975" y="54">ship</text>
    <text class="flow-label" x="1071" y="54">improve</text>
  </g>

  <path d="M72 126H1128" stroke="url(#accent)" stroke-width="2" stroke-linecap="round" opacity="0.88"/>

  <g class="mono">
    <g transform="translate(72 148)">
      <rect width="512" height="96" rx="18" fill="#F8FBFF" stroke="#72D0BD" stroke-opacity="0.34"/>
      <circle cx="24" cy="25" r="5" fill="#72D0BD">
        <animate attributeName="opacity" values="0.46;1;0.46" dur="5s" repeatCount="indefinite"/>
      </circle>
      <text class="card-title" x="42" y="30">Languages</text>
      <text class="card-subtitle" x="42" y="48">core engineering and production delivery</text>

      <g transform="translate(42 60)">
        <rect width="84" height="24" rx="12" fill="#FFFFFF" stroke="#72D0BD" stroke-opacity="0.58"/>
        <rect x="8" y="6" width="16" height="12" rx="4" fill="#72D0BD"/>
        <text class="chip-mini" x="11" y="15">PY</text>
        <text class="chip-text" x="34" y="16">Python</text>
      </g>
      <g transform="translate(136 60)">
        <rect width="68" height="24" rx="12" fill="#FFFFFF" stroke="#8AD0FF" stroke-opacity="0.58"/>
        <rect x="8" y="6" width="16" height="12" rx="4" fill="#8AD0FF"/>
        <text class="chip-mini" x="10" y="15">C++</text>
        <text class="chip-text" x="34" y="16">C++</text>
      </g>
      <g transform="translate(214 60)">
        <rect width="62" height="24" rx="12" fill="#FFFFFF" stroke="#B7A6FF" stroke-opacity="0.58"/>
        <rect x="8" y="6" width="16" height="12" rx="4" fill="#B7A6FF"/>
        <text class="chip-mini" x="11" y="15">C#</text>
        <text class="chip-text" x="34" y="16">C#</text>
      </g>
      <g transform="translate(286 60)">
        <rect width="70" height="24" rx="12" fill="#FFFFFF" stroke="#D9BE73" stroke-opacity="0.58"/>
        <rect x="8" y="6" width="16" height="12" rx="4" fill="#D9BE73"/>
        <text class="chip-mini" x="11" y="15">JV</text>
        <text class="chip-text" x="34" y="16">Java</text>
      </g>
      <g transform="translate(366 60)">
        <rect width="62" height="24" rx="12" fill="#FFFFFF" stroke="#95A6BA" stroke-opacity="0.58"/>
        <rect x="8" y="6" width="16" height="12" rx="4" fill="#95A6BA"/>
        <text class="chip-mini" x="11" y="15">DB</text>
        <text class="chip-text" x="34" y="16">SQL</text>
      </g>
    </g>

    <g transform="translate(616 148)">
      <rect width="512" height="96" rx="18" fill="#F8FBFF" stroke="#D9BE73" stroke-opacity="0.34"/>
      <circle cx="24" cy="25" r="5" fill="#D9BE73">
        <animate attributeName="opacity" values="0.42;1;0.42" dur="5s" begin="0.6s" repeatCount="indefinite"/>
      </circle>
      <text class="card-title" x="42" y="30">ML + Vision</text>
      <text class="card-subtitle" x="42" y="48">model development, visual inference, applied research</text>

      <g transform="translate(42 60)">
        <rect width="88" height="24" rx="12" fill="#FFFFFF" stroke="#EE4C2C" stroke-opacity="0.58"/>
        <rect x="8" y="6" width="16" height="12" rx="4" fill="#EE4C2C"/>
        <text class="chip-mini" x="11" y="15">PT</text>
        <text class="chip-text" x="34" y="16">PyTorch</text>
      </g>
      <g transform="translate(140 60)">
        <rect width="108" height="24" rx="12" fill="#FFFFFF" stroke="#FF6F00" stroke-opacity="0.58"/>
        <rect x="8" y="6" width="16" height="12" rx="4" fill="#FF6F00"/>
        <text class="chip-mini" x="11" y="15">TF</text>
        <text class="chip-text" x="34" y="16">TensorFlow</text>
      </g>
      <g transform="translate(258 60)">
        <rect width="82" height="24" rx="12" fill="#FFFFFF" stroke="#5CFF8A" stroke-opacity="0.58"/>
        <rect x="8" y="6" width="16" height="12" rx="4" fill="#5CFF8A"/>
        <text class="chip-mini" x="11" y="15">CV</text>
        <text class="chip-text" x="34" y="16">OpenCV</text>
      </g>
      <g transform="translate(350 60)">
        <rect width="74" height="24" rx="12" fill="#FFFFFF" stroke="#8AD0FF" stroke-opacity="0.58"/>
        <rect x="8" y="6" width="16" height="12" rx="4" fill="#8AD0FF"/>
        <text class="chip-mini" x="11" y="15">ML</text>
        <text class="chip-text" x="34" y="16">Stat ML</text>
      </g>
    </g>

    <g transform="translate(72 262)">
      <rect width="512" height="96" rx="18" fill="#F8FBFF" stroke="#9BA9FF" stroke-opacity="0.34"/>
      <circle cx="24" cy="25" r="5" fill="#9BA9FF">
        <animate attributeName="opacity" values="0.44;1;0.44" dur="5s" begin="1.2s" repeatCount="indefinite"/>
      </circle>
      <text class="card-title" x="42" y="30">LLM + Agentic AI</text>
      <text class="card-subtitle" x="42" y="48">assistants, tools, retrieval, evaluation loops</text>

      <g transform="translate(42 60)">
        <rect width="102" height="24" rx="12" fill="#FFFFFF" stroke="#CBD5E1" stroke-opacity="0.42"/>
        <rect x="8" y="6" width="16" height="12" rx="4" fill="#CBD5E1"/>
        <text class="chip-mini" x="11" y="15">OA</text>
        <text class="chip-text" x="34" y="16">OpenAI API</text>
      </g>
      <g transform="translate(154 60)">
        <rect width="96" height="24" rx="12" fill="#FFFFFF" stroke="#72D0BD" stroke-opacity="0.58"/>
        <rect x="8" y="6" width="16" height="12" rx="4" fill="#72D0BD"/>
        <text class="chip-mini" x="11" y="15">LG</text>
        <text class="chip-text" x="34" y="16">LangGraph</text>
      </g>
      <g transform="translate(260 60)">
        <rect width="98" height="24" rx="12" fill="#FFFFFF" stroke="#8AD0FF" stroke-opacity="0.58"/>
        <rect x="8" y="6" width="16" height="12" rx="4" fill="#8AD0FF"/>
        <text class="chip-mini" x="11" y="15">LC</text>
        <text class="chip-text" x="34" y="16">LangChain</text>
      </g>
      <g transform="translate(368 60)">
        <rect width="58" height="24" rx="12" fill="#FFFFFF" stroke="#D9BE73" stroke-opacity="0.58"/>
        <rect x="8" y="6" width="16" height="12" rx="4" fill="#D9BE73"/>
        <text class="chip-mini" x="11" y="15">RG</text>
        <text class="chip-text" x="34" y="16">RAG</text>
      </g>
    </g>

    <g transform="translate(616 262)">
      <rect width="512" height="96" rx="18" fill="#F8FBFF" stroke="#8AD0FF" stroke-opacity="0.34"/>
      <circle cx="24" cy="25" r="5" fill="#8AD0FF">
        <animate attributeName="opacity" values="0.42;1;0.42" dur="5s" begin="1.8s" repeatCount="indefinite"/>
      </circle>
      <text class="card-title" x="42" y="30">Backend + Systems</text>
      <text class="card-subtitle" x="42" y="48">APIs, actor systems, workflow automation</text>

      <g transform="translate(42 60)">
        <rect width="82" height="24" rx="12" fill="#FFFFFF" stroke="#009688" stroke-opacity="0.58"/>
        <rect x="8" y="6" width="16" height="12" rx="4" fill="#009688"/>
        <text class="chip-mini" x="11" y="15">FA</text>
        <text class="chip-text" x="34" y="16">FastAPI</text>
      </g>
      <g transform="translate(134 60)">
        <rect width="70" height="24" rx="12" fill="#FFFFFF" stroke="#95A6BA" stroke-opacity="0.58"/>
        <rect x="8" y="6" width="16" height="12" rx="4" fill="#95A6BA"/>
        <text class="chip-mini" x="10" y="15">API</text>
        <text class="chip-text" x="34" y="16">REST</text>
      </g>
      <g transform="translate(214 60)">
        <rect width="66" height="24" rx="12" fill="#FFFFFF" stroke="#15A9CE" stroke-opacity="0.58"/>
        <rect x="8" y="6" width="16" height="12" rx="4" fill="#15A9CE"/>
        <text class="chip-mini" x="11" y="15">AK</text>
        <text class="chip-text" x="34" y="16">Akka</text>
      </g>
      <g transform="translate(290 60)">
        <rect width="94" height="24" rx="12" fill="#FFFFFF" stroke="#72D0BD" stroke-opacity="0.58"/>
        <rect x="8" y="6" width="16" height="12" rx="4" fill="#72D0BD"/>
        <text class="chip-mini" x="11" y="15">IA</text>
        <text class="chip-text" x="34" y="16">Assistants</text>
      </g>
    </g>

    <g transform="translate(72 376)">
      <rect width="512" height="96" rx="18" fill="#F8FBFF" stroke="#72D0BD" stroke-opacity="0.34"/>
      <circle cx="24" cy="25" r="5" fill="#72D0BD">
        <animate attributeName="opacity" values="0.44;1;0.44" dur="5s" begin="2.4s" repeatCount="indefinite"/>
      </circle>
      <text class="card-title" x="42" y="30">Data + Cloud Platform</text>
      <text class="card-subtitle" x="42" y="48">pipelines, serving paths, infra-aware delivery</text>

      <g transform="translate(42 60)">
        <rect width="100" height="24" rx="12" fill="#FFFFFF" stroke="#FF3621" stroke-opacity="0.58"/>
        <rect x="8" y="6" width="16" height="12" rx="4" fill="#FF3621"/>
        <text class="chip-mini" x="11" y="15">DB</text>
        <text class="chip-text" x="34" y="16">Databricks</text>
      </g>
      <g transform="translate(152 60)">
        <rect width="104" height="24" rx="12" fill="#FFFFFF" stroke="#7CC7FF" stroke-opacity="0.58"/>
        <rect x="8" y="6" width="16" height="12" rx="4" fill="#7CC7FF"/>
        <text class="chip-mini" x="11" y="15">PG</text>
        <text class="chip-text" x="34" y="16">PostgreSQL</text>
      </g>
      <g transform="translate(260 60)">
        <rect width="58" height="24" rx="12" fill="#FFFFFF" stroke="#FF9900" stroke-opacity="0.58"/>
        <rect x="8" y="6" width="16" height="12" rx="4" fill="#FF9900"/>
        <text class="chip-mini" x="9" y="15">AWS</text>
        <text class="chip-text" x="34" y="16">AWS</text>
      </g>
      <g transform="translate(328 60)">
        <rect width="66" height="24" rx="12" fill="#FFFFFF" stroke="#0078D4" stroke-opacity="0.58"/>
        <rect x="8" y="6" width="16" height="12" rx="4" fill="#0078D4"/>
        <text class="chip-mini" x="11" y="15">AZ</text>
        <text class="chip-text" x="34" y="16">Azure</text>
      </g>
      <g transform="translate(404 60)">
        <rect width="102" height="24" rx="12" fill="#FFFFFF" stroke="#7B42BC" stroke-opacity="0.58"/>
        <rect x="8" y="6" width="16" height="12" rx="4" fill="#7B42BC"/>
        <text class="chip-mini" x="11" y="15">TF</text>
        <text class="chip-text" x="34" y="16">Terraform</text>
      </g>
    </g>

    <g transform="translate(616 376)">
      <rect width="512" height="96" rx="18" fill="#F8FBFF" stroke="#B7A6FF" stroke-opacity="0.34"/>
      <circle cx="24" cy="25" r="5" fill="#B7A6FF">
        <animate attributeName="opacity" values="0.44;1;0.44" dur="5s" begin="3s" repeatCount="indefinite"/>
      </circle>
      <text class="card-title" x="42" y="30">Delivery + Interfaces</text>
      <text class="card-subtitle" x="42" y="48">CI/CD, observability, Unity, feedback loops</text>

      <g transform="translate(42 60)">
        <rect width="76" height="24" rx="12" fill="#FFFFFF" stroke="#2496ED" stroke-opacity="0.58"/>
        <rect x="8" y="6" width="16" height="12" rx="4" fill="#2496ED"/>
        <text class="chip-mini" x="11" y="15">DK</text>
        <text class="chip-text" x="34" y="16">Docker</text>
      </g>
      <g transform="translate(128 60)">
        <rect width="130" height="24" rx="12" fill="#FFFFFF" stroke="#7CC7FF" stroke-opacity="0.58"/>
        <rect x="8" y="6" width="16" height="12" rx="4" fill="#7CC7FF"/>
        <text class="chip-mini" x="11" y="15">GH</text>
        <text class="chip-text" x="34" y="16">GitHub Actions</text>
      </g>
      <g transform="translate(262 60)">
        <rect width="66" height="24" rx="12" fill="#FFFFFF" stroke="#D9BE73" stroke-opacity="0.58"/>
        <rect x="8" y="6" width="16" height="12" rx="4" fill="#D9BE73"/>
        <text class="chip-mini" x="11" y="15">UN</text>
        <text class="chip-text" x="34" y="16">Unity</text>
      </g>
      <g transform="translate(338 60)">
        <rect width="124" height="24" rx="12" fill="#FFFFFF" stroke="#72D0BD" stroke-opacity="0.58"/>
        <rect x="8" y="6" width="16" height="12" rx="4" fill="#72D0BD"/>
        <text class="chip-mini" x="11" y="15">OB</text>
        <text class="chip-text" x="34" y="16">Observability</text>
      </g>
    </g>
  </g>
</svg>
